<svg xmlns="http://www.w3.org/2000/svg" viewBox="0 0 41 32"><defs><style>.cls-1{fill:#a6a6a6;}.cls-2{fill:#b2b2b2;}</style></defs><title>Asset 52</title><g id="Layer_2" data-name="Layer 2"><g id="Layer_1-2" data-name="Layer 1"><path class="cls-1" d="M30.69,30.32a30.25,30.25,0,0,1-5.34-1.77c-2.68-1-5.46-2.13-7.34-2.13a131.44,131.44,0,0,0-13.71.9l-.24,0A3.63,3.63,0,0,1,.86,25.19,1,1,0,0,1,.8,25a1.87,1.87,0,0,1-.08-.3c0-.12,0-.21,0-.31s0-.2,0-.31V7.85a1,1,0,0,1,0-.2c0-.17,0-.26.06-.36A1.5,1.5,0,0,1,.78,7c0-.09,0-.14.05-.17l0,0,0-.05,0,0,0-.09a3.73,3.73,0,0,1,3.21-2h0l.13,0A133.11,133.11,0,0,0,18,5.57c1.88,0,4.65-1.08,7.32-2.13a29.79,29.79,0,0,1,5.39-1.77l.24,0a3.71,3.71,0,0,1,3.11,2v0l.09.17a1,1,0,0,1,0,.12,1.87,1.87,0,0,1,.08.3c0,.12,0,.21,0,.31a1.24,1.24,0,0,1,0,.27V27.11c0,.11,0,.21,0,.31s0,.19,0,.29a1.5,1.5,0,0,1-.07.26c0,.09,0,.14-.05.17a3.67,3.67,0,0,1-3.29,2.21Z"/><path class="cls-2" d="M30.91,2.3a3.06,3.06,0,0,1,2.56,1.61l0,.08h0V4l0,.07v.1l0,0a1,1,0,0,1,0,.17c0,.07,0,.14,0,.21v0l0,.07s0,.07,0,.11V27.11c0,.08,0,.17,0,.25s0,.14,0,.24a.89.89,0,0,1,0,.14l0,0v.1h0l0,.05a3,3,0,0,1-2.63,1.74h-.13A30.87,30.87,0,0,1,25.58,28C22.84,26.88,20,25.78,18,25.78a132.71,132.71,0,0,0-13.78.91H4.09A3,3,0,0,1,1.46,25l0-.05h0v-.1l0,0a1,1,0,0,1,0-.17c0-.07,0-.14,0-.22s0-.16,0-.24V7.85a.23.23,0,0,0,0-.07h0l0-.07V7.64c0-.07,0-.14,0-.24a.88.88,0,0,1,0-.14l0,0v-.1l0-.07V7h0l0-.08A3.06,3.06,0,0,1,4.09,5.3H4.2A133.84,133.84,0,0,0,18,6.22c2,0,4.83-1.1,7.56-2.17a30.58,30.58,0,0,1,5.2-1.73l.16,0m0-1.3h0l-.26,0C27.4,1.5,21.16,4.92,18,4.92A132.59,132.59,0,0,1,4.39,4L4.12,4h0A4.36,4.36,0,0,0,.35,6.35a.82.82,0,0,0-.1.22,1.36,1.36,0,0,0-.08.22,2.21,2.21,0,0,0-.1.36c0,.13,0,.24-.05.37a1.65,1.65,0,0,0,0,.33V24.11c0,.13,0,.25,0,.37s0,.24.05.37a2.21,2.21,0,0,0,.1.36,1.36,1.36,0,0,0,.08.22A4.31,4.31,0,0,0,4.11,28h0l.26,0A129.92,129.92,0,0,1,18,27.08c3.16,0,9.4,3.41,12.61,3.89l.26,0h0a4.31,4.31,0,0,0,3.86-2.58,1.36,1.36,0,0,0,.08-.22,2.21,2.21,0,0,0,.1-.36c0-.13,0-.24.05-.37s0-.24,0-.37V4.85a1.65,1.65,0,0,0,0-.33c0-.13,0-.24-.05-.37a2.21,2.21,0,0,0-.1-.36,1.36,1.36,0,0,0-.08-.22.82.82,0,0,0-.1-.22A4.36,4.36,0,0,0,30.89,1Z"/><path class="cls-1" d="M11.65,3.4V.65H34A1.35,1.35,0,0,1,35.35,2V4A1.35,1.35,0,0,1,34,5.35Z"/><path class="cls-2" d="M34,1.3a.7.7,0,0,1,.7.7V4a.7.7,0,0,1-.66.7L12.3,2.81V1.3H34M34,0H11V4L34,6a2,2,0,0,0,2-2V2a2,2,0,0,0-2-2Z"/><path class="cls-1" d="M11.65,31.35V28.6l22.41-1.95A1.35,1.35,0,0,1,35.35,28v2A1.35,1.35,0,0,1,34,31.35Z"/><path class="cls-2" d="M34,27.3a.7.7,0,0,1,.66.7v2a.7.7,0,0,1-.7.7H12.3V29.19L34,27.3M34,26,11,28v4H34a2,2,0,0,0,2-2V28a2,2,0,0,0-2-2Z"/><path class="cls-1" d="M32.86,25.35H32.8a2.15,2.15,0,0,1-2.15-2.15V8.8A2.15,2.15,0,0,1,32.8,6.65h.06l5.39-1a2.16,2.16,0,0,1,2.1,2.15V24.2a2.16,2.16,0,0,1-2.1,2.15Z"/><path class="cls-2" d="M38.3,6.3a1.5,1.5,0,0,1,1.4,1.5V24.2a1.5,1.5,0,0,1-1.4,1.5l-5.26-1-.12,0H32.8a1.5,1.5,0,0,1-1.5-1.5V8.8a1.5,1.5,0,0,1,1.5-1.5h.12l.12,0,5.26-1M38.2,5,32.8,6A2.8,2.8,0,0,0,30,8.8V23.2A2.8,2.8,0,0,0,32.8,26l5.39,1A2.8,2.8,0,0,0,41,24.2V7.8A2.8,2.8,0,0,0,38.2,5Z"/><path class="cls-2" d="M26,6.41a57.42,57.42,0,0,1,.65,9.15c0,1.53,0,3.05-.14,4.58A40.59,40.59,0,0,1,26,24.71a40.53,40.53,0,0,1-.51-4.58c-.1-1.53-.13-3.05-.14-4.58A57.42,57.42,0,0,1,26,6.41Z"/><line class="cls-1" x1="26.05" y1="6.41" x2="26.05" y2="24.71"/><path class="cls-2" d="M22.5,9.37A32.07,32.07,0,0,1,23,15.56a31.71,31.71,0,0,1-.53,6.19A31.71,31.71,0,0,1,22,15.56,32.07,32.07,0,0,1,22.5,9.37Z"/><line class="cls-1" x1="22.5" y1="9.37" x2="22.5" y2="21.75"/></g></g></svg>